<?xml version="1.0" encoding="utf-8"?>
<!-- Generator: Adobe Illustrator 16.0.3, SVG Export Plug-In . SVG Version: 6.00 Build 0)  -->
<!DOCTYPE svg PUBLIC "-//W3C//DTD SVG 1.1//EN" "http://www.w3.org/Graphics/SVG/1.1/DTD/svg11.dtd">
<svg version="1.1" id="Ebene_1" xmlns="http://www.w3.org/2000/svg" xmlns:xlink="http://www.w3.org/1999/xlink" x="0px" y="0px"
	 width="128px" height="128px" viewBox="0 0 128 128" enable-background="new 0 0 128 128" xml:space="preserve">
<g>
	<polygon points="38,109 38,113 92,113 92,60 89,60 89,109 	"/>
	<rect x="38" y="69" width="38" height="4"/>
	<polygon points="92,33 92,20 89,20 89,29 48,29 48,56 51,56 51,33 	"/>
	<polygon fill="#0000C8" points="48,29 89,29 89,18.698 89,16 35,16 35,69 39.061,69 76,69 76,72.214 76,96 35,96 35,109 
		39.061,109 89,109 89,58.836 89,56 52.439,56 48,56 	"/>
</g>
</svg>
